ply
format ascii 1.0
comment VCGLIB generated
element vertex 250
property float x
property float y
property float z
property uchar red
property uchar green
property uchar blue
property uchar alpha
element face 496
property list uchar int vertex_indices
end_header
0 -275 0 192 192 192 255 
0 -325 0 192 192 192 255 
0 -300 -275 192 192 192 255 
0 -300 275 192 192 192 255 
0 -325 200 192 192 192 255 
0 -275 200 192 192 192 255 
0 -275 -200 192 192 192 255 
0 -325 -200 192 192 192 255 
275 -300 -200 192 192 192 255 
-275 -300 -200 192 192 192 255 
-275 -300 200 192 192 192 255 
275 -300 200 192 192 192 255 
275 -300 0 192 192 192 255 
-275 -300 0 192 192 192 255 
-200 -325 0 192 192 192 255 
-200 -275 0 192 192 192 255 
200 -325 0 192 192 192 255 
200 -275 0 192 192 192 255 
200 -300 275 192 192 192 255 
200 -325 200 192 192 192 255 
-200 -325 200 192 192 192 255 
-200 -300 275 192 192 192 255 
-200 -300 -275 192 192 192 255 
-200 -325 -200 192 192 192 255 
200 -325 -200 192 192 192 255 
200 -300 -275 192 192 192 255 
-200 -275 -256.25 192 192 192 255 
-256.25 -275 -200 192 192 192 255 
-200 -275 -143.75 192 192 192 255 
-143.75 -275 -200 192 192 192 255 
200 -275 -143.75 192 192 192 255 
256.25 -275 -200 192 192 192 255 
200 -275 -256.25 192 192 192 255 
143.75 -275 -200 192 192 192 255 
-200 -275 143.75 192 192 192 255 
-256.25 -275 200 192 192 192 255 
-200 -275 256.25 192 192 192 255 
-143.75 -275 200 192 192 192 255 
200 -275 256.25 192 192 192 255 
256.25 -275 200 192 192 192 255 
200 -275 143.75 192 192 192 255 
143.75 -275 200 192 192 192 255 
200 325 200 192 192 192 255 
-200 325 200 192 192 192 255 
200 325 -200 192 192 192 255 
-200 325 -200 192 192 192 255 
-200 25 -230 192 192 192 255 
-230 25 -200 192 192 192 255 
-200 25 -170 192 192 192 255 
-170 25 -200 192 192 192 255 
200 25 -170 192 192 192 255 
230 25 -200 192 192 192 255 
200 25 -230 192 192 192 255 
170 25 -200 192 192 192 255 
-200 25 170 192 192 192 255 
-230 25 200 192 192 192 255 
-200 25 230 192 192 192 255 
-170 25 200 192 192 192 255 
200 25 230 192 192 192 255 
230 25 200 192 192 192 255 
200 25 170 192 192 192 255 
170 25 200 192 192 192 255 
-112.5 -325 0 192 192 192 255 
-112.5 -275 0 192 192 192 255 
0 -325 112.5 192 192 192 255 
0 -275 112.5 192 192 192 255 
112.5 -325 0 192 192 192 255 
112.5 -275 0 192 192 192 255 
0 -275 -112.5 192 192 192 255 
0 -325 -112.5 192 192 192 255 
0 -281.25 -256.25 192 192 192 255 
112.5 -300 -275 192 192 192 255 
0 -318.75 -256.25 192 192 192 255 
-112.5 -300 -275 192 192 192 255 
112.5 -300 275 192 192 192 255 
0 -281.25 256.25 192 192 192 255 
-112.5 -300 275 192 192 192 255 
0 -318.75 256.25 192 192 192 255 
112.5 -325 200 192 192 192 255 
-112.5 -325 200 192 192 192 255 
98.4375 -275 200 192 192 192 255 
-98.4375 -275 200 192 192 192 255 
-98.4375 -275 -200 192 192 192 255 
-112.5 -325 -200 192 192 192 255 
98.4375 -275 -200 192 192 192 255 
112.5 -325 -200 192 192 192 255 
256.25 -318.75 -200 192 192 192 255 
256.25 -300 -256.25 192 192 192 255 
270.313 -281.25 -200 192 192 192 255 
275 -300 -112.5 192 192 192 255 
-270.313 -281.25 -200 192 192 192 255 
-256.25 -300 -256.25 192 192 192 255 
-256.25 -318.75 -200 192 192 192 255 
-275 -300 -112.5 192 192 192 255 
-256.25 -318.75 200 192 192 192 255 
-256.25 -300 256.25 192 192 192 255 
-270.313 -281.25 200 192 192 192 255 
-275 -300 112.5 192 192 192 255 
270.313 -281.25 200 192 192 192 255 
256.25 -300 256.25 192 192 192 255 
256.25 -318.75 200 192 192 192 255 
275 -300 112.5 192 192 192 255 
256.25 -281.25 0 192 192 192 255 
256.25 -318.75 0 192 192 192 255 
-256.25 -281.25 0 192 192 192 255 
-256.25 -318.75 0 192 192 192 255 
-200 -325 112.5 192 192 192 255 
-200 -325 -112.5 192 192 192 255 
-200 -275 -98.4375 192 192 192 255 
-200 -275 98.4375 192 192 192 255 
200 -325 -112.5 192 192 192 255 
200 -325 112.5 192 192 192 255 
200 -275 98.4375 192 192 192 255 
200 -275 -98.4375 192 192 192 255 
200 -281.25 270.313 192 192 192 255 
200 -318.75 256.25 192 192 192 255 
-200 -318.75 256.25 192 192 192 255 
-200 -281.25 270.313 192 192 192 255 
-200 -281.25 -270.313 192 192 192 255 
-200 -318.75 -256.25 192 192 192 255 
200 -318.75 -256.25 192 192 192 255 
200 -281.25 -270.313 192 192 192 255 
-242.188 -275 -242.188 192 192 192 255 
-200 -200 -240.313 192 192 192 255 
-157.813 -275 -242.188 192 192 192 255 
-242.188 -275 -157.813 192 192 192 255 
-240.313 -200 -200 192 192 192 255 
-157.813 -275 -157.813 192 192 192 255 
-200 -200 -159.688 192 192 192 255 
-159.688 -200 -200 192 192 192 255 
242.188 -275 -157.813 192 192 192 255 
200 -200 -159.688 192 192 192 255 
157.813 -275 -157.813 192 192 192 255 
242.188 -275 -242.188 192 192 192 255 
240.313 -200 -200 192 192 192 255 
157.813 -275 -242.188 192 192 192 255 
200 -200 -240.313 192 192 192 255 
159.688 -200 -200 192 192 192 255 
-242.188 -275 157.813 192 192 192 255 
-200 -200 159.688 192 192 192 255 
-157.813 -275 157.813 192 192 192 255 
-242.188 -275 242.188 192 192 192 255 
-240.313 -200 200 192 192 192 255 
-157.813 -275 242.188 192 192 192 255 
-200 -200 240.313 192 192 192 255 
-159.688 -200 200 192 192 192 255 
242.188 -275 242.188 192 192 192 255 
200 -200 240.313 192 192 192 255 
157.813 -275 242.188 192 192 192 255 
242.188 -275 157.813 192 192 192 255 
240.313 -200 200 192 192 192 255 
157.813 -275 157.813 192 192 192 255 
200 -200 159.688 192 192 192 255 
159.688 -200 200 192 192 192 255 
222.5 325 200 192 192 192 255 
200 325 177.5 192 192 192 255 
177.5 325 200 192 192 192 255 
200 325 222.5 192 192 192 255 
-222.5 325 200 192 192 192 255 
-200 325 222.5 192 192 192 255 
-177.5 325 200 192 192 192 255 
-200 325 177.5 192 192 192 255 
222.5 325 -200 192 192 192 255 
200 325 -222.5 192 192 192 255 
177.5 325 -200 192 192 192 255 
200 325 -177.5 192 192 192 255 
-222.5 325 -200 192 192 192 255 
-200 325 -177.5 192 192 192 255 
-177.5 325 -200 192 192 192 255 
-200 325 -222.5 192 192 192 255 
-222.5 25 -222.5 192 192 192 255 
-177.5 25 -222.5 192 192 192 255 
-222.5 25 -177.5 192 192 192 255 
-177.5 25 -177.5 192 192 192 255 
222.5 25 -177.5 192 192 192 255 
177.5 25 -177.5 192 192 192 255 
222.5 25 -222.5 192 192 192 255 
177.5 25 -222.5 192 192 192 255 
-222.5 25 177.5 192 192 192 255 
-177.5 25 177.5 192 192 192 255 
-222.5 25 222.5 192 192 192 255 
-177.5 25 222.5 192 192 192 255 
222.5 25 222.5 192 192 192 255 
177.5 25 222.5 192 192 192 255 
222.5 25 177.5 192 192 192 255 
177.5 25 177.5 192 192 192 255 
-112.5 -325 -112.5 192 192 192 255 
-112.5 -325 112.5 192 192 192 255 
112.5 -325 112.5 192 192 192 255 
112.5 -325 -112.5 192 192 192 255 
-119.25 -275 -119.25 192 192 192 255 
-119.25 -275 119.25 192 192 192 255 
119.25 -275 119.25 192 192 192 255 
119.25 -275 -119.25 192 192 192 255 
112.5 -318.75 256.25 192 192 192 255 
119.25 -279 260.75 192 192 192 255 
-119.25 -279 260.75 192 192 192 255 
-112.5 -318.75 256.25 192 192 192 255 
-119.25 -279 -260.75 192 192 192 255 
119.25 -279 -260.75 192 192 192 255 
112.5 -318.75 -256.25 192 192 192 255 
-112.5 -318.75 -256.25 192 192 192 255 
-256.25 -318.75 112.5 192 192 192 255 
-260.75 -279 119.25 192 192 192 255 
-260.75 -279 -119.25 192 192 192 255 
-256.25 -318.75 -112.5 192 192 192 255 
256.25 -318.75 -112.5 192 192 192 255 
260.75 -279 -119.25 192 192 192 255 
260.75 -279 119.25 192 192 192 255 
256.25 -318.75 112.5 192 192 192 255 
252.734 -281.25 252.734 192 192 192 255 
241.667 -313.889 241.667 192 192 192 255 
-241.667 -313.889 241.667 192 192 192 255 
-252.734 -281.25 252.734 192 192 192 255 
-252.734 -281.25 -252.734 192 192 192 255 
-241.667 -313.889 -241.667 192 192 192 255 
241.667 -313.889 -241.667 192 192 192 255 
252.734 -281.25 -252.734 192 192 192 255 
-169.766 -200 -230.234 192 192 192 255 
-230.234 -200 -230.234 192 192 192 255 
-230.234 -200 -169.766 192 192 192 255 
-169.766 -200 -169.766 192 192 192 255 
169.766 -200 -169.766 192 192 192 255 
230.234 -200 -169.766 192 192 192 255 
230.234 -200 -230.234 192 192 192 255 
169.766 -200 -230.234 192 192 192 255 
-169.766 -200 169.766 192 192 192 255 
-230.234 -200 169.766 192 192 192 255 
-230.234 -200 230.234 192 192 192 255 
-169.766 -200 230.234 192 192 192 255 
169.766 -200 230.234 192 192 192 255 
230.234 -200 230.234 192 192 192 255 
230.234 -200 169.766 192 192 192 255 
169.766 -200 169.766 192 192 192 255 
-216.875 325 -216.875 192 192 192 255 
-216.875 325 -183.125 192 192 192 255 
-183.125 325 -183.125 192 192 192 255 
-183.125 325 -216.875 192 192 192 255 
216.875 325 -183.125 192 192 192 255 
216.875 325 -216.875 192 192 192 255 
183.125 325 -216.875 192 192 192 255 
183.125 325 -183.125 192 192 192 255 
-216.875 325 183.125 192 192 192 255 
-216.875 325 216.875 192 192 192 255 
-183.125 325 216.875 192 192 192 255 
-183.125 325 183.125 192 192 192 255 
216.875 325 216.875 192 192 192 255 
216.875 325 183.125 192 192 192 255 
183.125 325 183.125 192 192 192 255 
183.125 325 216.875 192 192 192 255 
3 107 23 83 
3 107 83 186 
3 62 14 107 
3 62 107 186 
3 69 1 62 
3 69 62 186 
3 83 7 69 
3 83 69 186 
3 79 20 106 
3 79 106 187 
3 64 4 79 
3 64 79 187 
3 62 1 64 
3 62 64 187 
3 106 14 62 
3 106 62 187 
3 111 19 78 
3 111 78 188 
3 66 16 111 
3 66 111 188 
3 64 1 66 
3 64 66 188 
3 78 4 64 
3 78 64 188 
3 85 24 110 
3 85 110 189 
3 69 7 85 
3 69 85 189 
3 66 1 69 
3 66 69 189 
3 110 16 66 
3 110 66 189 
3 82 29 127 
3 82 127 190 
3 68 6 82 
3 68 82 190 
3 63 0 68 
3 63 68 190 
3 108 15 63 
3 108 63 190 
3 127 28 108 
3 127 108 190 
3 140 37 81 
3 140 81 191 
3 109 34 140 
3 109 140 191 
3 63 15 109 
3 63 109 191 
3 65 0 63 
3 65 63 191 
3 81 5 65 
3 81 65 191 
3 80 41 151 
3 80 151 192 
3 65 5 80 
3 65 80 192 
3 67 0 65 
3 67 65 192 
3 112 17 67 
3 112 67 192 
3 151 40 112 
3 151 112 192 
3 132 33 84 
3 132 84 193 
3 113 30 132 
3 113 132 193 
3 67 17 113 
3 67 113 193 
3 68 0 67 
3 68 67 193 
3 84 6 68 
3 84 68 193 
3 78 19 115 
3 78 115 194 
3 77 4 78 
3 77 78 194 
3 74 3 77 
3 74 77 194 
3 115 18 74 
3 115 74 194 
3 148 41 80 
3 148 80 195 
3 114 38 148 
3 114 148 195 
3 74 18 114 
3 74 114 195 
3 75 3 74 
3 75 74 195 
3 80 5 75 
3 80 75 195 
3 81 37 143 
3 81 143 196 
3 75 5 81 
3 75 81 196 
3 76 3 75 
3 76 75 196 
3 117 21 76 
3 117 76 196 
3 143 36 117 
3 143 117 196 
3 76 21 116 
3 76 116 197 
3 77 3 76 
3 77 76 197 
3 79 4 77 
3 79 77 197 
3 116 20 79 
3 116 79 197 
3 124 29 82 
3 124 82 198 
3 118 26 124 
3 118 124 198 
3 73 22 118 
3 73 118 198 
3 70 2 73 
3 70 73 198 
3 82 6 70 
3 82 70 198 
3 84 33 135 
3 84 135 199 
3 70 6 84 
3 70 84 199 
3 71 2 70 
3 71 70 199 
3 121 25 71 
3 121 71 199 
3 135 32 121 
3 135 121 199 
3 71 25 120 
3 71 120 200 
3 72 2 71 
3 72 71 200 
3 85 7 72 
3 85 72 200 
3 120 24 85 
3 120 85 200 
3 83 23 119 
3 83 119 201 
3 72 7 83 
3 72 83 201 
3 73 2 72 
3 73 72 201 
3 119 22 73 
3 119 73 201 
3 106 20 94 
3 106 94 202 
3 105 14 106 
3 105 106 202 
3 97 13 105 
3 97 105 202 
3 94 10 97 
3 94 97 202 
3 96 35 138 
3 96 138 203 
3 97 10 96 
3 97 96 203 
3 104 13 97 
3 104 97 203 
3 109 15 104 
3 109 104 203 
3 138 34 109 
3 138 109 203 
3 108 28 125 
3 108 125 204 
3 104 15 108 
3 104 108 204 
3 93 13 104 
3 93 104 204 
3 90 9 93 
3 90 93 204 
3 125 27 90 
3 125 90 204 
3 92 23 107 
3 92 107 205 
3 93 9 92 
3 93 92 205 
3 105 13 93 
3 105 93 205 
3 107 14 105 
3 107 105 205 
3 110 24 86 
3 110 86 206 
3 103 16 110 
3 103 110 206 
3 89 12 103 
3 89 103 206 
3 86 8 89 
3 86 89 206 
3 88 31 130 
3 88 130 207 
3 89 8 88 
3 89 88 207 
3 102 12 89 
3 102 89 207 
3 113 17 102 
3 113 102 207 
3 130 30 113 
3 130 113 207 
3 112 40 149 
3 112 149 208 
3 102 17 112 
3 102 112 208 
3 101 12 102 
3 101 102 208 
3 98 11 101 
3 98 101 208 
3 149 39 98 
3 149 98 208 
3 100 19 111 
3 100 111 209 
3 101 11 100 
3 101 100 209 
3 103 12 101 
3 103 101 209 
3 111 16 103 
3 111 103 209 
3 98 39 146 
3 98 146 210 
3 99 11 98 
3 99 98 210 
3 114 18 99 
3 114 99 210 
3 146 38 114 
3 146 114 210 
3 115 19 100 
3 115 100 211 
3 99 18 115 
3 99 115 211 
3 100 11 99 
3 100 99 211 
3 116 21 95 
3 116 95 212 
3 94 20 116 
3 94 116 212 
3 95 10 94 
3 95 94 212 
3 117 36 141 
3 117 141 213 
3 95 21 117 
3 95 117 213 
3 96 10 95 
3 96 95 213 
3 141 35 96 
3 141 96 213 
3 90 27 122 
3 90 122 214 
3 91 9 90 
3 91 90 214 
3 118 22 91 
3 118 91 214 
3 122 26 118 
3 122 118 214 
3 119 23 92 
3 119 92 215 
3 91 22 119 
3 91 119 215 
3 92 9 91 
3 92 91 215 
3 120 25 87 
3 120 87 216 
3 86 24 120 
3 86 120 216 
3 87 8 86 
3 87 86 216 
3 121 32 133 
3 121 133 217 
3 87 25 121 
3 87 121 217 
3 88 8 87 
3 88 87 217 
3 133 31 88 
3 133 88 217 
3 171 49 129 
3 171 129 218 
3 123 46 171 
3 123 171 218 
3 124 26 123 
3 124 123 218 
3 129 29 124 
3 129 124 218 
3 126 47 170 
3 126 170 219 
3 122 27 126 
3 122 126 219 
3 123 26 122 
3 123 122 219 
3 170 46 123 
3 170 123 219 
3 128 48 172 
3 128 172 220 
3 125 28 128 
3 125 128 220 
3 126 27 125 
3 126 125 220 
3 172 47 126 
3 172 126 220 
3 129 49 173 
3 129 173 221 
3 127 29 129 
3 127 129 221 
3 128 28 127 
3 128 127 221 
3 173 48 128 
3 173 128 221 
3 175 53 137 
3 175 137 222 
3 131 50 175 
3 131 175 222 
3 132 30 131 
3 132 131 222 
3 137 33 132 
3 137 132 222 
3 134 51 174 
3 134 174 223 
3 130 31 134 
3 130 134 223 
3 131 30 130 
3 131 130 223 
3 174 50 131 
3 174 131 223 
3 136 52 176 
3 136 176 224 
3 133 32 136 
3 133 136 224 
3 134 31 133 
3 134 133 224 
3 176 51 134 
3 176 134 224 
3 137 53 177 
3 137 177 225 
3 135 33 137 
3 135 137 225 
3 136 32 135 
3 136 135 225 
3 177 52 136 
3 177 136 225 
3 179 57 145 
3 179 145 226 
3 139 54 179 
3 139 179 226 
3 140 34 139 
3 140 139 226 
3 145 37 140 
3 145 140 226 
3 142 55 178 
3 142 178 227 
3 138 35 142 
3 138 142 227 
3 139 34 138 
3 139 138 227 
3 178 54 139 
3 178 139 227 
3 144 56 180 
3 144 180 228 
3 141 36 144 
3 141 144 228 
3 142 35 141 
3 142 141 228 
3 180 55 142 
3 180 142 228 
3 145 57 181 
3 145 181 229 
3 143 37 145 
3 143 145 229 
3 144 36 143 
3 144 143 229 
3 181 56 144 
3 181 144 229 
3 183 61 153 
3 183 153 230 
3 147 58 183 
3 147 183 230 
3 148 38 147 
3 148 147 230 
3 153 41 148 
3 153 148 230 
3 150 59 182 
3 150 182 231 
3 146 39 150 
3 146 150 231 
3 147 38 146 
3 147 146 231 
3 182 58 147 
3 182 147 231 
3 152 60 184 
3 152 184 232 
3 149 40 152 
3 149 152 232 
3 150 39 149 
3 150 149 232 
3 184 59 150 
3 184 150 232 
3 153 61 185 
3 153 185 233 
3 151 41 153 
3 151 153 233 
3 152 40 151 
3 152 151 233 
3 185 60 152 
3 185 152 233 
3 170 47 166 
3 170 166 234 
3 169 46 170 
3 169 170 234 
3 166 45 169 
3 166 169 234 
3 172 48 167 
3 172 167 235 
3 166 47 172 
3 166 172 235 
3 167 45 166 
3 167 166 235 
3 173 49 168 
3 173 168 236 
3 167 48 173 
3 167 173 236 
3 168 45 167 
3 168 167 236 
3 168 49 171 
3 168 171 237 
3 169 45 168 
3 169 168 237 
3 171 46 169 
3 171 169 237 
3 174 51 162 
3 174 162 238 
3 165 50 174 
3 165 174 238 
3 162 44 165 
3 162 165 238 
3 176 52 163 
3 176 163 239 
3 162 51 176 
3 162 176 239 
3 163 44 162 
3 163 162 239 
3 177 53 164 
3 177 164 240 
3 163 52 177 
3 163 177 240 
3 164 44 163 
3 164 163 240 
3 164 53 175 
3 164 175 241 
3 165 44 164 
3 165 164 241 
3 175 50 165 
3 175 165 241 
3 178 55 158 
3 178 158 242 
3 161 54 178 
3 161 178 242 
3 158 43 161 
3 158 161 242 
3 180 56 159 
3 180 159 243 
3 158 55 180 
3 158 180 243 
3 159 43 158 
3 159 158 243 
3 181 57 160 
3 181 160 244 
3 159 56 181 
3 159 181 244 
3 160 43 159 
3 160 159 244 
3 160 57 179 
3 160 179 245 
3 161 43 160 
3 161 160 245 
3 179 54 161 
3 179 161 245 
3 182 59 154 
3 182 154 246 
3 157 58 182 
3 157 182 246 
3 154 42 157 
3 154 157 246 
3 184 60 155 
3 184 155 247 
3 154 59 184 
3 154 184 247 
3 155 42 154 
3 155 154 247 
3 185 61 156 
3 185 156 248 
3 155 60 185 
3 155 185 248 
3 156 42 155 
3 156 155 248 
3 156 61 183 
3 156 183 249 
3 157 42 156 
3 157 156 249 
3 183 58 157 
3 183 157 249 
